<svg xmlns="http://www.w3.org/2000/svg" xmlns:xlink="http://www.w3.org/1999/xlink" version="1.1" width="1000" height="1000" viewBox="0 0 1000 1000" xml:space="preserve">
<desc>Created with Fabric.js 3.5.0</desc>
<defs>
</defs>
<rect x="0" y="0" width="100%" height="100%" fill="#ffffff"/>
<g transform="matrix(1.7756 0 0 1.7756 500.0081 500.0081)" id="651893">
<g style="" vector-effect="non-scaling-stroke">
		<g transform="matrix(0.5 0 0 0.5 194.1819 -154.9415)">
<path style="stroke: none; stroke-width: 1; stroke-dasharray: none; stroke-linecap: butt; stroke-dashoffset: 0; stroke-linejoin: miter; stroke-miterlimit: 4; is-custom-font: none; font-file-url: none; fill: rgb(73,78,98); fill-rule: nonzero; opacity: 1;" transform=" translate(-900.3639, -201.1169)" d="M 898.238 189.119 C 900.535 188.945 902.74 189.1 904.915 189.933 C 907.833 191.052 910.434 193.865 911.572 196.77 C 912.865 200.073 912.732 203.853 911.148 207.053 C 909.387 210.609 906.396 211.987 902.802 213.052 C 900.321 213.286 897.76 213.279 895.433 212.293 C 892.49 211.045 890.079 208.235 889.018 205.25 C 887.835 201.921 888.074 198.054 889.72 194.921 C 891.571 191.398 894.694 190.182 898.238 189.119 Z" stroke-linecap="round"/>
</g>
		<g transform="matrix(0.5 0 0 0.5 -192.5723 -160.3912)">
<path style="stroke: none; stroke-width: 1; stroke-dasharray: none; stroke-linecap: butt; stroke-dashoffset: 0; stroke-linejoin: miter; stroke-miterlimit: 4; is-custom-font: none; font-file-url: none; fill: rgb(73,78,98); fill-rule: nonzero; opacity: 1;" transform=" translate(-126.8555, -190.2175)" d="M 125.71 177.672 C 128.008 177.877 130.316 178.023 132.394 179.133 C 135.54 180.813 137.995 183.98 138.865 187.438 C 139.679 190.671 138.801 194.462 136.996 197.22 C 134.834 200.525 132.306 202.063 128.506 202.763 C 125.82 202.473 123.16 202.033 120.893 200.448 C 117.596 198.144 115.157 194.286 114.613 190.285 C 114.233 187.485 115.392 184.269 117.114 182.074 C 119.392 179.169 122.206 178.206 125.71 177.672 Z" stroke-linecap="round"/>
</g>
		<g transform="matrix(0.5 0 0 0.5 141.5862 -206.2975)">
<path style="stroke: none; stroke-width: 1; stroke-dasharray: none; stroke-linecap: butt; stroke-dashoffset: 0; stroke-linejoin: miter; stroke-miterlimit: 4; is-custom-font: none; font-file-url: none; fill: rgb(255,218,185); fill-rule: nonzero; opacity: 1;" transform=" translate(-795.1725, -98.4051)" d="M 809.862 73.1284 C 813.158 73.3143 816.196 73.5711 818.729 75.9449 C 821.904 78.9197 824.42 84.8539 824.452 89.1562 C 824.5 95.5928 819.842 99.1921 817.007 104.25 C 815.973 106.095 815.511 108.193 814.022 109.75 C 810.688 111.112 807.125 110.228 803.753 109.518 L 802.966 112 C 801.476 116.112 799.002 120.884 794.761 122.749 C 791.92 123.999 788.07 123.968 785.235 122.804 C 781.419 121.237 778.372 118.364 776.738 114.579 C 776.718 109.558 778.579 107.272 781.756 103.657 C 780.553 103.662 779.306 103.69 778.117 103.492 C 774.408 102.875 769.838 100.424 767.819 97.1613 C 765.46 93.3482 765.53 89.1325 766.63 84.9121 C 767.444 81.791 769.611 79.1129 772.417 77.5665 C 776.364 75.3911 781.186 75.5181 785.399 76.8193 C 789.53 78.0946 792.076 80.523 794.006 84.3621 L 794.294 84.9488 C 795.092 83.6103 795.658 81.9825 796.552 80.75 C 799.649 76.4822 804.747 73.871 809.862 73.1284 Z" stroke-linecap="round"/>
</g>
		<g transform="matrix(0.5 0 0 0.5 142.9717 -55.3004)">
<path style="stroke: none; stroke-width: 1; stroke-dasharray: none; stroke-linecap: butt; stroke-dashoffset: 0; stroke-linejoin: miter; stroke-miterlimit: 4; is-custom-font: none; font-file-url: none; fill: rgb(255,218,185); fill-rule: nonzero; opacity: 1;" transform=" translate(-797.9434, -400.3991)" d="M 653.651 314.762 C 657.045 309.909 662.038 305.627 666.259 301.443 C 694.257 273.697 731.653 252.836 770.672 245.958 C 811.391 238.78 857.215 244.29 891.755 268.541 C 898.731 273.439 906.571 279.984 911.617 286.902 C 917.537 295.018 923.331 303.769 927.674 312.852 C 941.228 341.203 944.936 375.34 940.39 406.25 C 937.056 428.921 927.222 453.605 915.001 472.948 C 910.414 480.207 905.053 486.736 899.62 493.355 C 891.111 503.723 881.753 513.39 870.918 521.348 C 859.68 529.6 847.274 537.22 834.441 542.715 C 812.541 552.093 789.651 556.043 766.019 557.761 L 768.112 532.742 L 773.527 532.356 C 795.572 529.724 817.744 523.63 837.124 512.571 C 853.63 503.152 868.518 489.624 880.276 474.743 C 889.911 462.55 899.436 446.479 904.641 431.825 C 913.406 407.147 915.202 378.151 912.002 352.25 C 909.122 328.942 901.846 305.231 882.653 290.358 C 874.805 284.277 865.651 279.805 856.025 277.377 C 847.134 275.134 837.664 275.442 828.558 274.927 C 811.925 273.988 795.588 272.109 778.945 274.245 C 746.739 278.379 715.057 293.038 690.571 314.231 C 685.473 318.643 680.032 323.51 675.968 328.902 L 675.492 329.544 L 653.651 314.762 Z" stroke-linecap="round"/>
</g>
		<g transform="matrix(0.5 0 0 0.5 0.0626 178.0357)">
<path style="stroke: none; stroke-width: 1; stroke-dasharray: none; stroke-linecap: butt; stroke-dashoffset: 0; stroke-linejoin: miter; stroke-miterlimit: 4; is-custom-font: none; font-file-url: none; fill: rgb(73,78,98); fill-rule: nonzero; opacity: 1;" transform=" translate(-512.1251, -867.0715)" d="M 370.518 747.58 C 371.851 746.298 373.576 744.867 375.376 744.344 C 379.966 743.012 390.651 750.977 394.481 753.25 C 397.258 754.898 400.138 756.389 403.038 757.808 C 418.887 765.564 436.809 769.647 454.241 771.662 C 460.724 772.411 467.519 772.023 474.05 772.01 C 485.48 771.986 496.91 771.944 508.34 771.928 C 519.809 771.912 531.279 771.982 542.748 772.021 C 549.06 772.043 555.642 772.392 561.921 771.861 C 574.971 770.758 588.837 767.673 601.427 764.091 C 609.06 761.92 616.595 759.12 623.536 755.245 C 631.844 750.605 639.052 745.371 648.164 742.253 L 651.422 746.86 L 650.979 747.543 C 649.653 749.766 650.159 755.794 649.591 758.75 L 649.47 759.417 C 648.467 764.787 644.776 768.696 640.68 771.996 C 691.79 772.048 742.9 772.04 794.01 772.031 C 807.087 772.029 820.165 772.048 833.241 772.013 C 839.629 771.995 847.541 771.143 853.771 772.329 C 864.298 774.335 874.253 780.074 881.775 787.631 C 888.919 794.809 893.235 803.607 894.084 813.75 C 896.135 838.233 882.753 861.236 867.661 879.447 C 845.378 906.337 813.647 920.675 779.205 923.772 L 767.724 924.121 C 768.263 943.437 767.569 960.581 753.376 975.374 C 743.2 985.981 729.74 991.623 715.161 991.801 C 695.417 992.043 675.639 991.72 655.891 991.671 C 622.452 991.589 589.001 991.755 555.564 991.562 C 541.848 991.483 528.135 991.051 514.421 990.982 C 506.266 990.941 498.177 991.498 490.055 991.545 C 467.363 991.674 444.665 991.528 421.973 991.531 C 394.928 991.535 367.883 991.726 340.837 991.744 C 333.911 991.748 326.982 991.712 320.056 991.785 C 313.07 991.858 306.131 992.039 299.25 990.61 C 285.513 987.756 272.778 979.854 264.879 968.062 C 255.647 954.278 256.434 939.897 256.492 924.043 C 247.482 923.642 238.636 923.11 229.75 921.425 C 201.868 916.138 176.738 902.029 157.577 881.039 C 142.443 864.46 128.907 839.543 130.022 816.51 C 130.605 804.463 137.148 792.394 145.962 784.41 C 152.709 778.297 163.214 773.09 172.36 771.93 C 178.403 771.163 184.796 771.637 190.896 771.71 C 195.045 771.76 199.264 771.391 203.392 771.541 C 206.691 771.661 208.946 773.344 211.104 775.719 C 213.884 778.779 214.523 781.53 214.647 785.549 C 219.489 784.364 234.579 784.733 237.13 782.631 C 238.204 778.686 239.812 775.074 243.592 772.968 C 246.986 771.078 264.01 771.571 268.313 772.167 C 271.71 775.56 274.617 778.617 275.758 783.447 C 281.477 785.154 291.465 786.352 296.883 783.551 C 296.895 781.618 296.636 778.975 297.59 777.25 C 298.824 775.02 302.376 772.788 304.75 772.155 C 308.487 771.157 314.543 771.962 318.545 771.965 C 333.987 771.979 349.43 772.027 364.873 772.021 C 370.167 772.019 377.249 772.904 382.36 771.801 C 375.354 766.038 372.563 756.088 370.518 747.58 Z" stroke-linecap="round"/>
</g>
		<g transform="matrix(0.5 0 0 0.5 -0.1726 216.7831)">
<path style="stroke: none; stroke-width: 1; stroke-dasharray: none; stroke-linecap: butt; stroke-dashoffset: 0; stroke-linejoin: miter; stroke-miterlimit: 4; is-custom-font: none; font-file-url: none; fill: rgb(240,128,128); fill-rule: nonzero; opacity: 1;" transform=" translate(-511.6548, -944.5663)" d="M 705.917 925.484 L 736.855 925.44 C 739.172 934.118 740.309 943.519 735.656 951.623 C 733.017 956.219 728.991 960.394 723.658 961.595 C 720.67 962.268 717.126 962.018 714.055 962.048 C 708.598 962.102 703.141 962.167 697.684 962.224 C 668.867 962.525 640.077 961.952 611.266 962.113 C 578.69 962.294 546.088 962.514 513.514 962.917 C 504.006 963.034 494.526 963.647 485.025 963.683 C 456.426 963.792 427.836 962.936 399.232 962.913 C 382.743 962.9 366.248 962.876 349.76 963.058 C 335.494 963.215 320.991 963.645 306.75 962.9 C 302.294 962.667 298.181 961.559 294.491 958.963 C 289.06 955.142 285.508 949.234 284.648 942.65 C 284.319 940.133 284.367 937.228 284.891 934.742 C 286.971 937.209 288.357 940.264 290.648 942.521 C 295.011 946.819 302.551 948.262 308.484 948.785 C 325.692 950.302 343.508 949.506 360.765 949.184 C 376.699 948.887 392.68 949.005 408.617 949.155 C 434.968 949.403 461.405 950.077 487.75 949.933 C 523.419 949.739 559.093 948.623 594.75 948.406 C 616.213 948.276 637.669 949.171 659.135 948.784 C 665.611 948.668 694.934 949.05 698.875 944.657 C 702.416 940.711 706.379 930.947 705.917 925.484 Z" stroke-linecap="round"/>
</g>
		<g transform="matrix(0.5 0 0 0.5 -8.2888 213.3592)">
<path style="stroke: none; stroke-width: 1; stroke-dasharray: none; stroke-linecap: butt; stroke-dashoffset: 0; stroke-linejoin: miter; stroke-miterlimit: 4; is-custom-font: none; font-file-url: none; fill: rgb(248,173,157); fill-rule: nonzero; opacity: 1;" transform=" translate(-495.4224, -937.7185)" d="M 284.891 934.742 L 286.443 925.663 L 705.917 925.484 C 706.379 930.947 702.416 940.711 698.875 944.657 C 694.934 949.05 665.611 948.668 659.135 948.784 C 637.669 949.171 616.213 948.276 594.75 948.406 C 559.093 948.623 523.419 949.739 487.75 949.933 C 461.405 950.077 434.968 949.403 408.617 949.155 C 392.68 949.005 376.699 948.887 360.765 949.184 C 343.508 949.506 325.692 950.302 308.484 948.785 C 302.551 948.262 295.011 946.819 290.648 942.521 C 288.357 940.264 286.971 937.209 284.891 934.742 Z" stroke-linecap="round"/>
</g>
		<g transform="matrix(0.5 0 0 0.5 0.0319 161.6933)">
<linearGradient id="SVGID_7" gradientUnits="userSpaceOnUse" gradientTransform="matrix(1 0 0 1 0 0)" x1="797.75" y1="892.25" x2="716.54498" y2="630.211">
<stop offset="0%" style="stop-color:rgb(241,118,116);stop-opacity: 1"/>
<stop offset="100%" style="stop-color:rgb(253,172,163);stop-opacity: 1"/>
</linearGradient>
<path style="stroke: none; stroke-width: 1; stroke-dasharray: none; stroke-linecap: butt; stroke-dashoffset: 0; stroke-linejoin: miter; stroke-miterlimit: 4; is-custom-font: none; font-file-url: none; fill: url(#SVGID_7); fill-rule: nonzero; opacity: 1;" transform=" translate(-512.0639, -834.3866)" d="M 237.13 782.631 C 238.204 778.686 239.812 775.074 243.592 772.968 C 246.986 771.078 264.01 771.571 268.313 772.167 C 271.71 775.56 274.617 778.617 275.758 783.447 C 281.477 785.154 291.465 786.352 296.883 783.551 C 297.884 789.18 299.209 792.934 304.237 796.365 C 307.838 798.821 311.844 799.066 316.053 799.313 C 341.305 800.799 366.982 799.98 392.286 799.971 C 434.155 799.957 476.018 799.99 517.885 799.588 C 540.183 799.373 562.544 799.937 584.852 799.964 C 640.55 800.034 696.249 800.007 751.948 800.016 C 775.184 800.02 798.42 800.022 821.656 799.997 C 827.646 799.99 833.637 800.002 839.627 799.975 C 843.13 799.959 847.217 799.572 850.63 800.347 C 858.252 802.079 863.862 807.823 865.671 815.413 C 868.276 826.336 861.052 841.207 855.303 850.153 C 840.362 873.399 816.182 888.78 789.302 894.424 C 770.642 898.342 750.574 896.939 731.603 896.714 C 719.16 896.567 706.708 896.815 694.263 896.758 C 640.357 896.51 586.466 896.41 532.561 896.454 C 470.721 896.506 408.873 896.475 347.035 896.666 C 325.974 896.732 304.939 896.528 283.881 896.491 C 271.031 896.469 257.728 897.248 244.937 895.974 C 229.322 894.418 212.77 888.345 199.711 879.753 C 185.011 870.081 172.024 857.4 163.97 841.578 C 161.791 837.297 159.613 832.664 158.668 827.922 L 158.423 826.5 L 158.288 825.771 C 157.194 819.538 158.455 813.574 162.25 808.447 C 166.232 803.067 172.449 800.228 178.968 799.394 C 183.536 798.81 188.336 798.941 192.933 799.186 C 196.175 799.358 199.94 799.991 203.089 798.98 C 206.258 797.962 208.903 795.295 210.888 792.705 C 212.565 790.516 213.506 788.028 214.647 785.549 C 219.489 784.364 234.579 784.733 237.13 782.631 Z" stroke-linecap="round"/>
</g>
		<g transform="matrix(0.5 0 0 0.5 -127.778 137.4279)">
<path style="stroke: none; stroke-width: 1; stroke-dasharray: none; stroke-linecap: butt; stroke-dashoffset: 0; stroke-linejoin: miter; stroke-miterlimit: 4; is-custom-font: none; font-file-url: none; fill: rgb(73,78,98); fill-rule: nonzero; opacity: 1;" transform=" translate(-256.444, -785.8558)" d="M 237.13 782.631 C 238.204 778.686 239.812 775.074 243.592 772.968 C 246.986 771.078 264.01 771.571 268.313 772.167 C 271.71 775.56 274.617 778.617 275.758 783.447 C 275.375 784.195 275.341 786.09 275.196 786.997 C 274.79 789.539 274.177 791.865 272.724 794.028 C 270.47 797.383 267.089 798.923 263.218 799.586 C 257.026 800.647 247.775 800.193 242.549 796.299 C 237.82 792.775 237.853 787.978 237.13 782.631 Z" stroke-linecap="round"/>
</g>
		<g transform="matrix(0.5 0 0 0.5 -149.4277 159.766)">
<path style="stroke: none; stroke-width: 1; stroke-dasharray: none; stroke-linecap: butt; stroke-dashoffset: 0; stroke-linejoin: miter; stroke-miterlimit: 4; is-custom-font: none; font-file-url: none; fill: rgb(248,173,157); fill-rule: nonzero; opacity: 1;" transform=" translate(-213.1446, -830.5321)" d="M 210.373 812.749 C 211.639 812.724 213.629 812.468 214.761 812.956 C 215.566 813.303 215.041 813.182 216.234 813.223 C 217.724 813.274 218.593 813.576 220.002 813.967 C 222.019 814.525 223.628 815.276 225.5 816.232 L 227.002 816.997 C 228.261 817.517 228.473 818.427 229.502 818.995 C 230.804 819.712 231.452 820.245 232.296 821.51 L 232.75 822.245 C 233.48 823.402 234.329 824.711 234.707 826.037 L 234.819 826.5 C 235.229 827.669 235.296 828.191 235.175 829.423 L 235.114 830.003 C 235.016 831.036 234.923 831.734 234.519 832.695 C 231.187 840.613 224.457 844.987 216.816 848.221 C 210.846 848.971 206.068 847.379 201 844.238 L 200.25 843.769 C 198.228 842.656 195.35 839.918 194.138 837.924 L 193.75 837.255 C 193.05 836.101 192.381 835.023 191.944 833.734 L 191.709 833 L 191.448 832.45 C 190.208 829.083 192.227 825.005 193.498 821.997 C 194.24 820.241 197.097 817.39 198.835 816.519 C 199.997 815.937 199.036 816.597 200.046 815.84 L 200.498 815.497 C 202.183 814.665 203.958 814.205 205.75 813.718 C 207.324 813.289 208.751 812.985 210.373 812.749 Z" stroke-linecap="round"/>
</g>
		<g transform="matrix(0.5 0 0 0.5 0.47 -53.9416)">
<path style="stroke: none; stroke-width: 1; stroke-dasharray: none; stroke-linecap: butt; stroke-dashoffset: 0; stroke-linejoin: miter; stroke-miterlimit: 4; is-custom-font: none; font-file-url: none; fill: rgb(73,78,98); fill-rule: nonzero; opacity: 1;" transform=" translate(-512.9399, -403.117)" d="M 234.159 288.099 C 235.156 283.23 236.458 279.337 240.836 276.437 C 245.119 273.599 249.418 273.903 254.25 275.038 C 272.671 279.365 292.183 286.463 308.361 296.37 C 317.178 301.769 325.341 308.355 333.086 315.18 C 337.858 319.385 342.841 323.681 347.081 328.434 C 365.72 314.802 386.089 303.361 407.472 294.608 C 394.674 288.059 383.994 279.828 375.03 268.487 C 372.456 265.231 370.479 261.486 367.8 258.325 C 365.357 255.444 361.147 253.526 358.327 250.791 C 348.305 241.069 340.988 227.266 336.721 214.125 C 333.595 204.502 332.059 194.392 331.292 184.328 C 329.773 164.386 331.553 143.076 340.919 125.05 C 346.559 114.195 353.979 106.516 363.918 99.496 C 368.968 95.9284 374.435 92.7325 379.204 88.7873 C 385.385 83.6749 390.638 77.3026 396.465 71.7887 C 409.719 59.2463 426.776 50.647 444.07 45.2193 C 456.847 41.209 469.814 40.0075 483.109 39.311 C 488.574 39.0247 494.406 39.0972 499.799 38.2421 C 504.936 37.4276 510.424 34.1527 515.432 34.0818 C 521.257 33.9994 527.32 36.898 533.076 37.7838 C 540.977 38.9999 549.065 39.373 557 40.4001 C 571.382 42.2616 585.424 46.0013 598.303 52.7656 C 608.489 58.1156 617.896 65.367 626.17 73.3285 C 629.122 76.1685 631.521 79.6782 634.657 82.2557 C 640.655 87.1864 647.934 91.2443 654.457 95.456 C 671.591 106.518 682.479 120.521 688.525 140.075 C 697.751 169.915 694.731 205.901 679.95 233.535 C 676.449 240.081 672.355 246.302 666.509 251.001 C 664.35 252.738 661.593 254.072 659.796 256.203 C 657.475 258.955 655.739 262.268 653.475 265.104 C 643.88 277.116 631.823 288.763 617.438 294.817 C 630.395 300.128 641.488 308.091 653.651 314.762 L 675.492 329.544 L 675.968 328.902 C 680.032 323.51 685.473 318.643 690.571 314.231 C 715.057 293.038 746.739 278.379 778.945 274.245 C 795.588 272.109 811.925 273.988 828.558 274.927 C 837.664 275.442 847.134 275.134 856.025 277.377 C 865.651 279.805 874.805 284.277 882.653 290.358 C 901.846 305.231 909.122 328.942 912.002 352.25 C 915.202 378.151 913.406 407.147 904.641 431.825 C 899.436 446.479 889.911 462.55 880.276 474.743 C 868.518 489.624 853.63 503.152 837.124 512.571 C 817.744 523.63 795.572 529.724 773.527 532.356 L 768.112 532.742 L 766.019 557.761 C 764.95 570.919 762.377 583.929 759.074 596.7 C 782.917 605.201 806.245 616.177 828.156 628.836 C 832.761 631.496 837.264 634.296 841.493 637.531 C 843.276 638.895 845.693 640.844 846.646 642.898 L 847.045 644 L 847.26 644.643 C 848.235 647.751 847.965 651.5 846.472 654.411 C 844.648 657.968 841.037 660.412 837.234 661.435 C 831.937 662.859 827.802 660.714 823.427 657.988 C 815.261 652.9 807.256 647.662 798.721 643.185 C 783.762 635.337 767.977 629.216 752.403 622.734 L 740.296 650.633 C 746.292 652.754 752.024 655.591 757.849 658.131 C 762.279 660.062 767.138 661.782 771.215 664.406 C 781.248 669.142 821.497 689.314 824.774 698.652 C 825.359 700.321 825.509 702.018 825.25 703.755 L 824.109 705.436 C 825.406 709.179 825.308 713.001 823.485 716.557 C 821.698 720.041 818.481 722.607 814.75 723.721 C 810.591 724.962 806.005 724.296 802.206 722.293 C 797.963 720.056 794.062 716.796 789.861 714.37 C 779.557 708.418 768.591 702.822 757.813 697.772 C 750.368 694.283 742.857 691.254 735.168 688.352 C 730.409 686.556 725.523 685.143 720.968 682.839 C 711.916 693.461 701.84 702.278 691.306 711.361 C 687.692 714.477 683.643 718.809 679.25 720.607 C 676.904 720.363 675.666 719.446 673.959 717.862 C 670.542 723.417 667.218 729.007 663.75 734.545 C 661.79 737.674 659.983 741.518 657.181 743.975 C 655.309 745.617 653.8 746.209 651.422 746.86 L 648.164 742.253 C 639.052 745.371 631.844 750.605 623.536 755.245 C 616.595 759.12 609.06 761.92 601.427 764.091 C 588.837 767.673 574.971 770.758 561.921 771.861 C 555.642 772.392 549.06 772.043 542.748 772.021 C 531.279 771.982 519.809 771.912 508.34 771.928 C 496.91 771.944 485.48 771.986 474.05 772.01 C 467.519 772.023 460.724 772.411 454.241 771.662 C 436.809 769.647 418.887 765.564 403.038 757.808 C 400.138 756.389 397.258 754.898 394.481 753.25 C 390.651 750.977 379.966 743.012 375.376 744.344 C 373.576 744.867 371.851 746.298 370.518 747.58 C 367.108 745.247 364.096 741.844 361.2 738.914 C 356.971 734.636 351.427 729.571 348.626 724.231 C 339.059 717.644 329.334 710.622 320.729 702.823 C 314.009 696.732 307.872 689.881 301.759 683.189 C 282.092 690.213 263.851 698.675 245.5 708.592 C 237.448 712.944 229.492 718.359 221.25 722.197 C 218.886 723.298 216.393 723.903 213.773 723.794 C 209.86 723.632 205.564 722.525 202.857 719.497 C 199.507 715.749 199.413 711.508 199.7 706.791 L 198.832 705.75 C 197.981 704.454 197.92 702.5 198.303 701.035 C 199.638 695.934 207.01 690.717 211.426 688.085 L 211.495 687.886 C 216.228 684.117 221.761 680.963 227 677.948 C 239.75 670.612 253.365 664.662 267.158 659.555 C 272.823 657.457 278.946 655.986 284.449 653.567 L 284.934 653.35 C 279.815 643.341 274.525 633.69 270.891 623.005 C 265.693 626.028 259.608 627.796 254.073 630.136 C 244.918 634.004 235.741 637.948 226.87 642.437 C 220.819 645.499 214.637 648.795 208.938 652.467 C 204.588 655.269 200.737 658.768 195.942 660.826 L 195.123 661.168 C 192.738 662.185 189.782 662.44 187.272 661.679 L 186.75 661.507 C 183.588 660.496 180.713 658.339 178.874 655.567 C 176.139 651.443 177.064 646.535 177.984 642.01 C 182.718 636.447 189.988 632.766 196.241 629.138 C 203.946 624.668 211.587 620.163 219.598 616.251 C 233.836 609.297 248.703 603.504 263.464 597.775 C 257.955 576.49 253.987 554.912 253.487 532.868 C 227.713 531.373 202.566 524.291 180.972 509.787 C 162.2 497.179 144.512 478.791 133.391 459 C 124.892 443.875 119.016 426.468 115.711 409.474 C 112.158 391.209 111.65 372.368 113.306 353.87 C 114.932 335.701 118.433 317.05 128.982 301.714 C 139.688 286.148 156.663 276.923 174.994 273.661 C 179.501 272.859 184.627 271.841 188.579 274.818 C 192.982 278.134 194.247 282.205 194.994 287.356 C 203.991 287.634 213.004 287.881 221.998 288.235 C 225.436 288.371 230.589 289.358 233.832 288.499 L 234.159 288.099 Z M 284.934 653.35 L 284.449 653.567 C 278.946 655.986 272.823 657.457 267.158 659.555 C 253.365 664.662 239.75 670.612 227 677.948 C 221.761 680.963 216.228 684.117 211.495 687.886 L 211.426 688.085 C 207.01 690.717 199.638 695.934 198.303 701.035 C 197.92 702.5 197.981 704.454 198.832 705.75 L 199.7 706.791 C 201.413 703.972 203.793 702.312 206.418 700.423 C 211.128 697.014 216.316 694.037 221.299 691.052 C 242.902 678.112 265.641 668.655 289.167 659.846 C 288.499 657.694 286.249 655.237 284.934 653.35 Z M 740.296 650.633 L 734.682 658.837 L 772.903 674.795 C 773.591 674.594 774.215 674.471 774.931 674.367 C 776.13 674.192 776.027 673.91 776.755 673 C 776.407 671.969 776.08 671.91 775.255 671.25 C 775.304 670.183 775.317 669.675 774.755 668.75 L 772.062 668.367 L 771.5 668.25 C 769.724 667.972 769.069 668.1 767.909 666.615 L 768.694 664.741 C 769.738 664.688 769.287 664.741 770.399 664.551 L 771.215 664.406 C 767.138 661.782 762.279 660.062 757.849 658.131 C 752.024 655.591 746.292 652.754 740.296 650.633 Z" stroke-linecap="round"/>
</g>
		<g transform="matrix(0.5 0 0 0.5 142.3203 86.9605)">
<path style="stroke: none; stroke-width: 1; stroke-dasharray: none; stroke-linecap: butt; stroke-dashoffset: 0; stroke-linejoin: miter; stroke-miterlimit: 4; is-custom-font: none; font-file-url: none; fill: rgb(225,226,228); fill-rule: nonzero; opacity: 1;" transform=" translate(-796.6406, -684.921)" d="M 772.903 674.795 C 773.591 674.594 774.215 674.471 774.931 674.367 C 776.13 674.192 776.027 673.91 776.755 673 C 776.407 671.969 776.08 671.91 775.255 671.25 C 775.304 670.183 775.317 669.675 774.755 668.75 L 772.062 668.367 L 771.5 668.25 C 769.724 667.972 769.069 668.1 767.909 666.615 L 768.694 664.741 C 769.738 664.688 769.287 664.741 770.399 664.551 L 771.215 664.406 C 781.248 669.142 821.497 689.314 824.774 698.652 C 825.359 700.321 825.509 702.018 825.25 703.755 L 824.109 705.436 C 819.63 700.548 813.978 697.231 808.341 693.826 C 796.768 686.835 784.728 681.226 772.903 674.795 Z" stroke-linecap="round"/>
</g>
		<g transform="matrix(0.5 0 0 0.5 68.565 90.7332)">
<path style="stroke: none; stroke-width: 1; stroke-dasharray: none; stroke-linecap: butt; stroke-dashoffset: 0; stroke-linejoin: miter; stroke-miterlimit: 4; is-custom-font: none; font-file-url: none; fill: rgb(248,173,157); fill-rule: nonzero; opacity: 1;" transform=" translate(-649.13, -692.4665)" d="M 624.573 670.142 L 644.544 670.598 C 653.3 671.126 662.078 670.791 670.822 671.366 C 677.742 671.822 684.537 672.994 691.31 674.45 C 686.478 679.566 681.315 684.544 675.75 688.867 C 671.514 692.158 666.958 695.04 662.896 698.556 L 662 697.742 C 659.093 698.528 656.288 700.235 653.528 701.469 C 648.948 703.517 643.441 705.323 639.436 708.345 L 625.151 714.791 C 625.117 709.562 624.384 704.9 620.966 700.659 C 618.381 697.452 615.865 696.189 611.833 695.667 L 606.95 696.876 C 608.369 694.169 610.601 691.923 612.47 689.513 C 616.328 684.538 620.941 678.562 623.446 672.777 L 624.573 670.142 Z" stroke-linecap="round"/>
</g>
		<g transform="matrix(0.5 0 0 0.5 84.903 59.3539)">
<path style="stroke: none; stroke-width: 1; stroke-dasharray: none; stroke-linecap: butt; stroke-dashoffset: 0; stroke-linejoin: miter; stroke-miterlimit: 4; is-custom-font: none; font-file-url: none; fill: rgb(251,196,171); fill-rule: nonzero; opacity: 1;" transform=" translate(-681.806, -629.7077)" d="M 659.701 609.777 C 663.894 609.512 668.264 609.994 672.47 610.127 C 690.074 610.686 709.2 611.922 726.058 617.253 C 723.84 621.913 711.206 648.041 707.615 649.859 L 693.72 647.202 C 675.734 642.522 655.99 643.074 637.554 642.06 L 641.592 637.441 L 642.497 636.497 C 644.657 635.22 645.198 633.686 646.652 631.676 C 651.105 625.523 654.427 618.126 655.205 610.534 C 655.495 610.208 655.65 609.656 656.075 609.557 C 656.159 609.537 657.081 610.018 657.277 610.051 C 657.886 610.151 659.049 609.851 659.701 609.777 Z" stroke-linecap="round"/>
</g>
		<g transform="matrix(0.5 0 0 0.5 79.3588 61.8026)">
<path style="stroke: none; stroke-width: 1; stroke-dasharray: none; stroke-linecap: butt; stroke-dashoffset: 0; stroke-linejoin: miter; stroke-miterlimit: 4; is-custom-font: none; font-file-url: none; fill: rgb(248,173,157); fill-rule: nonzero; opacity: 1;" transform=" translate(-670.7175, -634.6052)" d="M 641.592 637.441 L 643.75 638.573 C 648.372 635.892 652.133 630.368 656.5 627.011 C 658.231 625.68 662.722 622.43 664.717 622.054 C 666.049 621.804 669.082 622.655 670.639 622.82 C 681.095 623.931 692.162 624.374 702.378 626.88 L 703.881 627.308 C 700.024 633.656 696.25 640.193 693.72 647.202 C 675.734 642.522 655.99 643.074 637.554 642.06 L 641.592 637.441 Z" stroke-linecap="round"/>
</g>
		<g transform="matrix(0.5 0 0 0.5 0.0697 -176.3194)">
<path style="stroke: none; stroke-width: 1; stroke-dasharray: none; stroke-linecap: butt; stroke-dashoffset: 0; stroke-linejoin: miter; stroke-miterlimit: 4; is-custom-font: none; font-file-url: none; fill: rgb(244,151,142); fill-rule: nonzero; opacity: 1;" transform=" translate(-512.1393, -158.3613)" d="M 398.127 252.525 C 393.63 247.817 390.809 241.875 386.434 237.153 C 382.507 232.915 377.272 229.979 373.647 225.543 C 361.259 210.383 356.934 185.176 358.707 166.125 C 360.178 150.327 363.751 133.837 377.182 123.893 C 383.513 119.205 390.411 115.393 396.639 110.528 C 404.65 104.271 411.177 96.2606 419.001 89.7677 C 433.952 77.3595 452.205 69.2441 471.617 67.3938 C 480.065 66.5884 488.646 66.841 497.123 66.4268 C 503.281 66.1259 509.3 64.5096 515.367 64.2293 C 520.098 64.0108 525.013 64.9795 529.729 65.4115 C 536.393 66.022 543.097 66.3417 549.75 67.0142 C 573.162 69.3805 591.388 78.9763 608.578 94.7339 C 614.639 100.29 620.27 106.219 626.841 111.201 C 635.127 117.484 645.613 121.288 652.183 129.571 C 664.251 144.785 667.629 168.891 665.229 187.653 C 663.889 198.133 661.514 207.375 656.408 216.704 C 654.811 219.622 653.054 222.811 650.784 225.254 C 647.27 229.035 642.989 232.1 639.547 235.951 C 636.506 239.354 635.14 243.84 631.964 247.061 L 627.692 251.23 C 625.327 248.941 624.635 247.09 624.561 243.755 C 624.34 233.845 631.416 227.586 636.816 220.14 C 639.756 216.087 642.225 211.847 644.313 207.297 C 649.849 195.23 651.234 183.937 651.069 170.814 C 650.903 157.552 648.734 143.642 638.804 133.962 C 632.263 127.585 623.773 123.068 616.782 117.096 C 609.218 110.634 602.268 103.259 594.297 97.3025 C 589.323 93.5856 584.022 90.0496 578.342 87.5035 C 565.484 81.7403 550.397 79.6666 536.449 78.531 C 528.85 77.9122 521.385 77.3312 513.75 77.4817 C 506.864 77.6175 499.852 78.6444 492.986 79.2925 C 471.555 81.3156 448.771 82.9302 430.477 95.4783 C 421.424 101.687 414.193 109.819 406.037 117.063 C 398.505 123.753 389.708 128.912 382.75 136.31 C 372.864 146.82 373.506 165.56 374.125 178.998 C 374.795 193.549 380.015 210.423 389.099 221.933 C 391.986 225.591 396.162 228.724 397.991 233 C 399.76 237.14 400.681 240.659 401.678 245.056 L 398.127 252.525 Z" stroke-linecap="round"/>
</g>
		<g transform="matrix(0.5 0 0 0.5 -0.6269 -143.0149)">
<path style="stroke: none; stroke-width: 1; stroke-dasharray: none; stroke-linecap: butt; stroke-dashoffset: 0; stroke-linejoin: miter; stroke-miterlimit: 4; is-custom-font: none; font-file-url: none; fill: rgb(240,128,128); fill-rule: nonzero; opacity: 1;" transform=" translate(-510.7461, -224.9702)" d="M 480.847 169.25 C 482.636 169.209 484.766 171.548 486.214 172.658 C 488.604 174.492 491.049 176.139 493.764 177.461 C 497.951 179.5 502.704 180.784 507.368 180.973 C 520.658 181.513 530.425 178.357 540.28 169.403 C 544.915 170.698 549.321 173.9 553.567 176.128 C 562.777 180.962 575.932 183.418 585.961 180.228 L 586.54 180.038 L 574.83 280.691 L 551.38 276.894 C 527.115 274.523 502.795 274.134 478.5 276.345 C 472.046 276.932 465.563 277.673 459.168 278.72 C 456.203 279.206 452.518 280.511 449.595 280.457 C 447.683 269.235 446.11 257.963 444.198 246.743 C 441.659 231.839 438.917 216.995 436.8 202.021 C 435.855 195.341 434.246 187.285 435.294 180.566 C 446.719 182.232 457.548 181.676 467.976 176.317 C 472.341 174.073 476.395 171.349 480.847 169.25 Z" stroke-linecap="round"/>
</g>
		<g transform="matrix(0.5 0 0 0.5 0.2257 -168.2916)">
<path style="stroke: none; stroke-width: 1; stroke-dasharray: none; stroke-linecap: butt; stroke-dashoffset: 0; stroke-linejoin: miter; stroke-miterlimit: 4; is-custom-font: none; font-file-url: none; fill: rgb(240,128,128); fill-rule: nonzero; opacity: 1;" transform=" translate(-512.4514, -174.4168)" d="M 398.127 252.525 L 401.678 245.056 C 400.681 240.659 399.76 237.14 397.991 233 C 396.162 228.724 391.986 225.591 389.099 221.933 C 380.015 210.423 374.795 193.549 374.125 178.998 C 373.506 165.56 372.864 146.82 382.75 136.31 C 389.708 128.912 398.505 123.753 406.037 117.063 C 414.193 109.819 421.424 101.687 430.477 95.4783 C 448.771 82.9302 471.555 81.3156 492.986 79.2925 C 499.852 78.6444 506.864 77.6175 513.75 77.4817 C 521.385 77.3312 528.85 77.9122 536.449 78.531 C 550.397 79.6666 565.484 81.7403 578.342 87.5035 C 584.022 90.0496 589.323 93.5856 594.297 97.3025 C 602.268 103.259 609.218 110.634 616.782 117.096 C 623.773 123.068 632.263 127.585 638.804 133.962 C 648.734 143.642 650.903 157.552 651.069 170.814 C 651.234 183.937 649.849 195.23 644.313 207.297 C 642.225 211.847 639.756 216.087 636.816 220.14 C 631.416 227.586 624.34 233.845 624.561 243.755 C 624.635 247.09 625.327 248.941 627.692 251.23 C 620.914 258.669 612.949 266.153 604.322 271.376 C 606.361 256.406 608.236 241.391 610.387 226.44 C 612.026 215.044 615.316 203.248 615.612 191.747 C 615.8 184.397 614.489 176.971 613.071 169.778 C 611.787 163.265 610.185 156.752 606.2 151.302 C 603.42 147.499 599.963 144.989 595.25 144.316 C 592.627 143.942 590.228 144.55 588.087 146.13 C 583.551 149.478 580.698 153.386 574.363 152.719 C 567.969 152.046 560.941 148.038 556.111 143.876 C 553.731 141.826 551.413 139.213 548.728 137.605 C 544.115 134.843 537.076 134.94 532.681 138.216 C 525.076 143.885 521.977 154.283 510.147 152.648 C 504.034 151.803 498.759 147.624 494.691 143.25 C 492.464 140.856 490.177 138.04 487.104 136.743 C 485.176 135.93 482.991 135.936 480.931 135.958 C 477.908 135.99 475.093 136.635 472.581 138.375 C 463.856 144.422 456.711 155.39 444.25 152.815 C 442.647 152.483 441.472 151.004 440.402 149.877 C 437.386 146.7 435.24 144.604 430.647 144.602 C 428.031 144.6 425.518 145.156 423.25 146.494 C 415.288 151.19 413.47 159.674 411.518 168 C 410.552 172.118 409.459 176.209 408.513 180.329 C 407.22 185.962 406.73 190.947 407.08 196.75 C 407.832 209.225 411.059 221.958 413.163 234.288 C 415.206 246.259 416.489 258.654 418.996 270.501 C 411.577 265.175 404.16 259.441 398.127 252.525 Z" stroke-linecap="round"/>
</g>
		<g transform="matrix(0.5 0 0 0.5 139.4817 -54.1432)">
<path style="stroke: none; stroke-width: 1; stroke-dasharray: none; stroke-linecap: butt; stroke-dashoffset: 0; stroke-linejoin: miter; stroke-miterlimit: 4; is-custom-font: none; font-file-url: none; fill: rgb(255,218,185); fill-rule: nonzero; opacity: 1;" transform=" translate(-790.9633, -402.7135)" d="M 787.815 300.203 C 798.373 299.267 808.512 301.001 819 301.456 C 828.353 301.862 838.211 301.138 847.423 302.843 C 852.421 303.768 857.306 305.557 861.712 308.087 C 872.219 314.122 878.518 325.386 881.558 336.759 C 890.644 370.759 888.493 410.763 870.545 441.606 C 853.151 471.496 824.915 493.027 791.606 501.945 C 783.669 503.984 775.872 504.9 767.723 505.497 C 765.714 482.368 761.519 459.206 753.764 437.266 C 748.435 422.19 741.266 407.765 733.178 393.99 C 722.656 376.073 710.803 360.444 695.128 346.664 C 699.533 342.275 703.929 337.763 708.741 333.816 C 731.678 315.004 758.247 303.261 787.815 300.203 Z" stroke-linecap="round"/>
</g>
		<g transform="matrix(0.5 0 0 0.5 -139.455 -57.1372)">
<path style="stroke: none; stroke-width: 1; stroke-dasharray: none; stroke-linecap: butt; stroke-dashoffset: 0; stroke-linejoin: miter; stroke-miterlimit: 4; is-custom-font: none; font-file-url: none; fill: rgb(255,218,185); fill-rule: nonzero; opacity: 1;" transform=" translate(-233.09, -396.7255)" d="M 194.994 287.356 C 203.991 287.634 213.004 287.881 221.998 288.235 C 225.436 288.371 230.589 289.358 233.832 288.499 L 234.159 288.099 C 234.804 292.34 236.327 296.061 240.209 298.289 C 243.369 300.102 247.477 300.934 250.984 301.841 C 255.34 302.969 259.626 304.206 263.902 305.607 C 288.92 313.804 309.089 328.036 327.1 347.013 C 318.532 355.87 309.775 365.204 302.475 375.137 C 274.696 412.932 259.724 459.86 254.899 506.095 C 244.85 505.25 235.059 503.732 225.417 500.709 C 193.578 490.728 168.615 467.413 153.402 437.993 C 141.861 415.672 138.2 390.138 139.252 365.251 C 139.741 353.692 141.163 341.856 144.718 330.812 C 148.971 317.595 158.752 305.751 172.537 301.898 C 177.328 300.559 182.856 300.39 187.25 298.008 C 191.409 295.753 193.446 292.427 194.796 288.021 L 194.994 287.356 Z" stroke-linecap="round"/>
</g>
		<g transform="matrix(0.5 0 0 0.5 -160.7981 -80.7512)">
<path style="stroke: none; stroke-width: 1; stroke-dasharray: none; stroke-linecap: butt; stroke-dashoffset: 0; stroke-linejoin: miter; stroke-miterlimit: 4; is-custom-font: none; font-file-url: none; fill: rgb(255,255,255); fill-rule: nonzero; opacity: 1;" transform=" translate(-190.4037, -349.4975)" d="M 187.591 337.028 C 190.993 336.821 193.481 336.813 196.273 339.004 L 196.75 339.391 C 198.124 340.492 199.178 341.554 200.116 343.061 C 201.5 345.286 202.741 347.707 201.991 350.375 C 200.529 355.574 197.307 359.183 192.614 361.674 C 190.892 362.067 188.614 362.23 186.903 361.796 C 184.119 361.09 181.455 359.019 180.028 356.529 C 178.285 353.487 178.28 350.017 179.198 346.707 C 180.538 341.872 183.361 339.353 187.591 337.028 Z" stroke-linecap="round"/>
</g>
		<g transform="matrix(0.5 0 0 0.5 -0.5061 13.1469)">
<path style="stroke: none; stroke-width: 1; stroke-dasharray: none; stroke-linecap: butt; stroke-dashoffset: 0; stroke-linejoin: miter; stroke-miterlimit: 4; is-custom-font: none; font-file-url: none; fill: rgb(255,218,185); fill-rule: nonzero; opacity: 1;" transform=" translate(-510.9877, -537.2938)" d="M 303.593 587.944 L 289.807 590.918 C 287.513 584.541 286.154 577.645 284.86 571 C 278.619 538.938 279.64 505.618 286.933 473.812 C 299.687 418.191 334.177 367.651 382.653 337.264 C 411.158 319.397 442.796 308.532 476.171 304.39 C 489.429 302.745 502.874 302.384 516.219 302.439 C 534.816 302.517 554.064 303.937 572.213 308.163 C 594.895 313.446 615.649 322.605 635.504 334.65 C 663.975 351.923 689.27 374.765 706.87 403.274 C 714.736 416.015 722.023 429.972 727.26 444.018 C 738.802 474.972 743.049 510.526 740.512 543.397 C 739.287 559.272 736.277 574.561 732.649 590.022 C 727.537 588.608 721.728 588.247 716.449 587.524 C 710.625 586.23 704.462 585.924 698.544 585.298 C 684.209 583.783 669.833 582.584 655.418 582.362 C 652.466 583.171 650.569 584.826 648.987 587.451 C 646.909 590.898 646.144 595.951 647.356 599.82 C 648.484 603.424 651.283 606.622 654.689 608.225 C 656.277 608.972 658.001 609.381 659.701 609.777 C 659.049 609.851 657.886 610.151 657.277 610.051 C 657.081 610.018 656.159 609.537 656.075 609.557 C 655.65 609.656 655.495 610.208 655.205 610.534 C 654.427 618.126 651.105 625.523 646.652 631.676 C 645.198 633.686 644.657 635.22 642.497 636.497 L 641.592 637.441 L 637.554 642.06 C 629.449 642.464 617.688 640.555 611.692 647.028 C 609.071 649.857 608.782 652.021 608.97 655.75 C 609.018 656.706 609.192 657.573 609.409 658.5 L 609.566 659.188 C 610.468 662.911 612.709 665.922 615.965 667.925 C 618.558 669.52 621.583 669.976 624.573 670.142 L 623.446 672.777 C 620.941 678.562 616.328 684.538 612.47 689.513 C 610.601 691.923 608.369 694.169 606.95 696.876 L 611.833 695.667 C 615.865 696.189 618.381 697.452 620.966 700.659 C 624.384 704.9 625.117 709.562 625.151 714.791 L 639.436 708.345 C 643.441 705.323 648.948 703.517 653.528 701.469 C 656.288 700.235 659.093 698.528 662 697.742 L 662.896 698.556 C 661.861 699.851 660.526 701.179 660.227 702.852 C 661.714 706.783 666.146 712.107 670 713.951 C 670.586 714.231 670.7 714.235 671.25 714.367 C 672.279 715.491 673.221 716.511 673.959 717.862 C 670.542 723.417 667.218 729.007 663.75 734.545 C 661.79 737.674 659.983 741.518 657.181 743.975 C 655.309 745.617 653.8 746.209 651.422 746.86 L 648.164 742.253 C 639.052 745.371 631.844 750.605 623.536 755.245 C 616.595 759.12 609.06 761.92 601.427 764.091 C 588.837 767.673 574.971 770.758 561.921 771.861 C 555.642 772.392 549.06 772.043 542.748 772.021 C 531.279 771.982 519.809 771.912 508.34 771.928 C 496.91 771.944 485.48 771.986 474.05 772.01 C 467.519 772.023 460.724 772.411 454.241 771.662 C 436.809 769.647 418.887 765.564 403.038 757.808 C 400.138 756.389 397.258 754.898 394.481 753.25 C 390.651 750.977 379.966 743.012 375.376 744.344 C 373.576 744.867 371.851 746.298 370.518 747.58 C 367.108 745.247 364.096 741.844 361.2 738.914 C 356.971 734.636 351.427 729.571 348.626 724.231 C 353.741 723.109 359.464 720.677 363.619 717.461 C 365.795 714.085 366.905 710.784 366.497 706.75 C 366.349 705.282 365.802 703.976 364.756 702.928 C 359.6 697.768 352.358 694.362 346.58 689.869 C 340.666 685.27 335.546 679.695 329.862 674.803 C 342.416 672.93 355.117 670.714 367.837 670.515 C 377.866 670.358 388.114 672.011 398.068 670.823 C 404.01 670.114 409.465 668.107 413.115 663.078 C 415.017 660.458 415.395 657.479 414.83 654.328 C 414.062 650.044 411.627 646.838 407.974 644.534 C 406.105 643.354 404.019 642.455 401.823 642.123 C 398.095 641.559 393.821 641.942 390.031 641.961 C 372.588 642.05 355.084 643.175 337.844 645.927 C 330.092 647.164 322.489 648.967 314.878 650.86 L 297.34 617.273 C 313.03 612.705 330.108 610.735 346.384 609.521 C 353.319 609.004 361.324 609.378 368.06 607.847 C 370.487 607.295 372.326 606.082 374.096 604.357 C 376.184 602.321 378.928 597.675 378.605 594.662 C 378.15 590.429 375.33 586.343 371.915 583.933 C 369.933 582.533 367.417 581.451 365 581.146 C 361.228 580.669 356.59 581.663 352.75 581.967 C 336.208 583.278 319.918 584.911 303.593 587.944 Z" stroke-linecap="round"/>
</g>
		<g transform="matrix(0.5 0 0 0.5 40.0598 16.6329)">
<path style="stroke: none; stroke-width: 1; stroke-dasharray: none; stroke-linecap: butt; stroke-dashoffset: 0; stroke-linejoin: miter; stroke-miterlimit: 4; is-custom-font: none; font-file-url: none; fill: rgb(73,78,98); fill-rule: nonzero; opacity: 1;" transform=" translate(-592.1195, -544.2658)" d="M 589.911 514.112 C 593.457 513.874 596.634 514.162 599.75 516.024 C 603.34 518.168 606.469 521.699 607.512 525.811 C 608.88 531.203 608.195 538.179 608.279 543.754 C 608.361 549.189 609.027 555.375 608.259 560.75 C 607.947 562.935 607.171 564.89 605.996 566.75 C 603.244 571.107 599.492 573.296 594.619 574.447 C 591.393 574.594 588.457 574.445 585.557 572.896 C 581.431 570.694 577.548 566.336 576.398 561.758 C 575.399 557.779 575.949 552.541 575.918 548.434 C 575.866 541.587 575.057 533.477 576.314 526.755 C 576.633 525.05 577.343 523.271 578.25 521.794 C 581.032 517.262 584.917 515.32 589.911 514.112 Z" stroke-linecap="round"/>
</g>
		<g transform="matrix(0.5 0 0 0.5 -39.9482 16.6097)">
<path style="stroke: none; stroke-width: 1; stroke-dasharray: none; stroke-linecap: butt; stroke-dashoffset: 0; stroke-linejoin: miter; stroke-miterlimit: 4; is-custom-font: none; font-file-url: none; fill: rgb(73,78,98); fill-rule: nonzero; opacity: 1;" transform=" translate(-432.1035, -544.2193)" d="M 428.696 514.09 C 432.308 513.9 435.701 513.686 439.026 515.383 C 443.072 517.448 446.218 521.106 447.491 525.469 C 448.2 527.897 448.005 530.562 448.024 533.069 C 448.058 537.295 448.018 541.524 448.085 545.75 C 448.164 550.673 448.85 555.958 448.27 560.841 C 448.041 562.767 447.446 564.781 446.541 566.5 C 444.185 570.976 440.316 572.909 435.716 574.385 C 432.336 574.542 429.128 574.646 425.921 573.328 C 422.075 571.748 419 568.813 417.387 564.964 C 415.071 559.435 415.976 551.378 415.967 545.47 C 415.957 538.904 414.752 529.272 417.608 523.25 C 419.901 518.416 423.805 515.754 428.696 514.09 Z" stroke-linecap="round"/>
</g>
		<g transform="matrix(0.5 0 0 0.5 -0.3538 111.974)">
<linearGradient id="SVGID_8" gradientUnits="userSpaceOnUse" gradientTransform="matrix(1 0 0 1 0 0)" x1="562.25" y1="771.75" x2="553.82703" y2="696.09003">
<stop offset="0%" style="stop-color:rgb(248,175,155);stop-opacity: 1"/>
<stop offset="100%" style="stop-color:rgb(253,206,174);stop-opacity: 1"/>
</linearGradient>
<path style="stroke: none; stroke-width: 1; stroke-dasharray: none; stroke-linecap: butt; stroke-dashoffset: 0; stroke-linejoin: miter; stroke-miterlimit: 4; is-custom-font: none; font-file-url: none; fill: url(#SVGID_8); fill-rule: nonzero; opacity: 1;" transform=" translate(-511.2925, -734.9479)" d="M 639.436 708.345 C 643.441 705.323 648.948 703.517 653.528 701.469 C 656.288 700.235 659.093 698.528 662 697.742 L 662.896 698.556 C 661.861 699.851 660.526 701.179 660.227 702.852 C 661.714 706.783 666.146 712.107 670 713.951 C 670.586 714.231 670.7 714.235 671.25 714.367 C 672.279 715.491 673.221 716.511 673.959 717.862 C 670.542 723.417 667.218 729.007 663.75 734.545 C 661.79 737.674 659.983 741.518 657.181 743.975 C 655.309 745.617 653.8 746.209 651.422 746.86 L 648.164 742.253 C 639.052 745.371 631.844 750.605 623.536 755.245 C 616.595 759.12 609.06 761.92 601.427 764.091 C 588.837 767.673 574.971 770.758 561.921 771.861 C 555.642 772.392 549.06 772.043 542.748 772.021 C 531.279 771.982 519.809 771.912 508.34 771.928 C 496.91 771.944 485.48 771.986 474.05 772.01 C 467.519 772.023 460.724 772.411 454.241 771.662 C 436.809 769.647 418.887 765.564 403.038 757.808 C 400.138 756.389 397.258 754.898 394.481 753.25 C 390.651 750.977 379.966 743.012 375.376 744.344 C 373.576 744.867 371.851 746.298 370.518 747.58 C 367.108 745.247 364.096 741.844 361.2 738.914 C 356.971 734.636 351.427 729.571 348.626 724.231 C 353.741 723.109 359.464 720.677 363.619 717.461 C 364.078 718.404 364.395 718.948 365.231 719.645 L 366 720.245 C 366.613 720.731 367.056 721.032 367.767 721.387 L 368.5 721.745 C 371.296 723.363 374.145 724.722 377 726.225 C 377.911 726.704 378.654 727.14 379.64 727.464 C 384.374 729.021 390.59 730.893 394.998 733.175 C 396.348 733.874 397.469 734.866 398.873 735.521 C 405.093 738.423 411.643 740.914 417.986 743.563 C 430.706 748.876 444.543 754.444 458.346 756.069 C 468.06 757.213 477.603 756.793 487.263 755.35 C 491.476 754.72 495.685 754.23 499.693 752.685 C 503.067 751.384 507.808 747.294 510.987 746.97 C 513.33 746.73 519.895 750.28 522.366 751.158 C 527.255 752.896 532.32 754.234 537.423 755.165 C 543.904 756.348 550.529 755.987 557.053 755.448 C 571.974 754.217 586.94 750.923 600.825 745.268 C 609.708 741.65 618.193 736.68 626.72 732.41 L 629 731.255 C 633.215 729.105 638.011 728.018 642.22 725.91 L 652.003 721.003 L 655.503 719.003 C 656.524 718.472 657.191 718.126 658.048 717.345 L 659.003 716.503 C 661.177 715.371 663.095 713.085 664.432 710.999 C 663.945 710.243 663.484 709.5 662.886 708.825 C 661.655 707.437 660.327 705.709 659.578 703.997 C 659.12 702.95 659.274 702.033 659.755 701 L 660.875 699.247 C 653.521 700.671 646.766 706.875 639.436 708.345 Z" stroke-linecap="round"/>
</g>
		<g transform="matrix(0.5 0 0 0.5 87.982 -18.0893)">
<path style="stroke: none; stroke-width: 1; stroke-dasharray: none; stroke-linecap: butt; stroke-dashoffset: 0; stroke-linejoin: miter; stroke-miterlimit: 4; is-custom-font: none; font-file-url: none; fill: rgb(248,173,157); fill-rule: nonzero; opacity: 1;" transform=" translate(-687.9639, -474.8215)" d="M 650.65 362.119 C 659.356 368.478 667.637 375.294 674.909 383.274 C 680.436 389.34 685.002 395.956 689.56 402.75 C 706.849 428.52 717.898 457.675 722.672 488.329 C 725.948 509.368 726.335 529.898 724.22 551.055 C 723.235 560.917 722.336 570.875 719.348 580.381 C 718.579 582.829 717.39 585.138 716.449 587.524 C 710.625 586.23 704.462 585.924 698.544 585.298 C 684.209 583.783 669.833 582.584 655.418 582.362 C 655.634 577.896 658.309 572.331 659.505 567.923 C 665.823 544.628 668.439 519.977 669.913 495.949 C 671.105 476.538 672.196 456.878 670.757 437.438 C 669.336 418.261 665.036 396.847 657.794 379.012 C 655.904 374.358 653.561 370.174 651.255 365.75 C 650.485 364.272 650.108 363.672 650.65 362.119 Z" stroke-linecap="round"/>
</g>
		<g transform="matrix(0.5 0 0 0.5 -0.5072 74.7911)">
<path style="stroke: none; stroke-width: 1; stroke-dasharray: none; stroke-linecap: butt; stroke-dashoffset: 0; stroke-linejoin: miter; stroke-miterlimit: 4; is-custom-font: none; font-file-url: none; fill: rgb(73,78,98); fill-rule: nonzero; opacity: 1;" transform=" translate(-510.9857, -660.5822)" d="M 625.151 714.791 C 619.539 721.875 610.728 725.085 602.536 728.256 C 586.524 734.453 570.953 738.628 553.73 739.498 C 547.28 739.824 540.765 739.895 534.396 738.683 C 530.79 737.997 527.261 736.941 523.875 735.523 C 520.923 734.286 517.999 732.891 515.216 731.311 C 514.253 730.765 512.331 729.298 511.271 729.453 C 509.509 729.712 505.923 732.234 504.126 733.051 C 497.584 736.027 490.938 738.58 483.788 739.622 C 477.899 740.481 472.009 740.333 466.082 740.112 C 447.182 739.406 429.969 735.044 412.59 727.684 C 409.386 726.327 404.762 725.05 402.085 722.842 C 399.057 720.346 396.99 716.702 396.831 712.758 C 396.684 709.13 398.082 705.593 400.555 702.955 C 403.166 700.168 407.29 698.18 411.175 698.595 C 416.747 699.19 422.077 703.319 427.223 705.496 C 441.755 711.641 458.268 714.181 474 713.926 C 483.908 713.766 490.701 711.478 497.522 704.292 C 497.824 697.512 497.718 690.723 497.607 683.94 C 497.547 680.257 497.86 675.685 496.308 672.26 L 496.064 671.75 C 492.79 664.384 483.325 661.462 476.554 658.683 C 472.879 657.176 469.329 655.344 466.026 653.131 C 462.012 650.442 458.605 646.675 455.84 642.736 C 450.268 634.801 448.141 625.573 449.883 615.961 C 451.804 605.358 459.153 593.29 468.145 587.297 C 472.431 584.44 477.344 582.33 482.43 581.448 C 486.346 580.768 490.534 580.927 494.499 580.903 C 501.193 580.863 507.889 580.889 514.583 580.904 C 520.11 580.916 525.636 580.935 531.163 580.968 C 535.031 580.991 538.941 580.792 542.744 581.597 C 553.325 583.835 564.543 593.123 570.228 602.127 C 574.971 609.637 576.973 619.888 574.791 628.543 L 574.544 629.5 C 570.988 643.845 560.993 653.109 547.707 658.659 C 541.432 661.281 534.897 663.561 530.097 668.6 C 528.754 670.01 527.66 671.529 527.088 673.414 C 526.129 676.572 526.197 680.353 526.101 683.621 C 525.902 690.331 526.058 697.057 526.152 703.769 C 529.211 707.84 532.673 710.612 537.495 712.401 C 544.202 714.891 551.56 713.88 558.45 712.775 C 575.696 710.01 591.114 704.034 606.95 696.876 L 611.833 695.667 C 615.865 696.189 618.381 697.452 620.966 700.659 C 624.384 704.9 625.117 709.562 625.151 714.791 Z" stroke-linecap="round"/>
</g>
		<g transform="matrix(0.5 0 0 0.5 0.141 58.6808)">
<path style="stroke: none; stroke-width: 1; stroke-dasharray: none; stroke-linecap: butt; stroke-dashoffset: 0; stroke-linejoin: miter; stroke-miterlimit: 4; is-custom-font: none; font-file-url: none; fill: rgb(255,218,185); fill-rule: nonzero; opacity: 1;" transform=" translate(-512.282, -628.3616)" d="M 490.257 608.169 C 499.34 607.523 508.772 608.006 517.89 608.01 C 523.597 608.012 532.376 606.932 537.682 608.768 C 541.761 610.18 545.483 614.049 547.139 617.987 C 548.061 620.181 547.71 622.87 546.795 625.005 C 543.292 633.18 531.2 635.747 523.8 639.008 C 518.896 641.513 515.877 645.033 512.271 649.027 C 506.441 643.318 500.677 638.839 493 635.995 C 489.757 634.793 486.261 633.783 483.27 632.017 C 480.463 630.359 477.722 627.567 477.082 624.25 C 476.478 621.114 477.29 617.938 479.048 615.318 C 481.751 611.287 485.588 609.095 490.257 608.169 Z" stroke-linecap="round"/>
</g>
</g>
</g>
<g transform="matrix(1 0 0 1 506.6173 799.3249)" style="" id="752693">
		
<path xml:space="preserve" font-family="Acme" font-size="91" font-style="normal" font-weight="normal" style="stroke: none; stroke-width: 1; stroke-dasharray: none; stroke-linecap: butt; stroke-dashoffset: 0; stroke-linejoin: miter; stroke-miterlimit: 4; is-custom-font: none; font-file-url: none; fill: rgb(0,0,0); fill-rule: nonzero; opacity: 1; white-space: pre;" d="M-222.68 4.38L-222.68 4.38L-227.86 4.38L-227.86 4.93L-226.77 28.59L-238.97 28.59L-237.87 6.47L-238.97-34.20L-219.22-34.20Q-210.48-34.20-205.30-29.47Q-200.11-24.74-200.11-16.91L-200.11-16.91Q-200.11-11.00-203.16-6.13Q-206.21-1.26-211.39 1.56L-211.39 1.56L-195.56 23.95L-206.57 29.59L-220.77 4.29Q-221.40 4.38-222.68 4.38ZM-222.50-25.01L-222.50-25.01L-226.95-25.01L-227.59-4.45L-221.40-4.45Q-216.85-4.45-214.35-7.45Q-211.85-10.45-211.85-16.00L-211.85-16.00Q-211.85-25.01-222.50-25.01ZM-179.18 28.59Q-184.55 28.59-187.96 25.17Q-191.37 21.76-191.37 15.98Q-191.37 10.20-186.10 5.97Q-180.82 1.74-173.26 1.74L-173.26 1.74L-167.08 1.74L-167.08 0.19Q-167.08-4.26-168.90-5.90Q-170.72-7.54-175.72-7.54L-175.72-7.54Q-177.81-7.54-180.68-6.68Q-183.55-5.81-187.10-3.99L-187.10-3.99L-189.74-11.18Q-185.82-13.91-180.23-16.09Q-174.63-18.28-170.99-18.28L-170.99-18.28Q-156.70-18.28-156.70-4.45L-156.70-4.45L-156.70 13.39Q-156.70 18.49-153.52 24.76L-153.52 24.76L-163.16 28.86Q-165.44 24.49-166.53 21.03L-166.53 21.03Q-171.54 28.59-179.18 28.59L-179.18 28.59ZM-175.36 19.30L-175.36 19.30Q-171.72 19.30-167.08 15.57L-167.08 15.57L-167.08 9.48Q-171.90 8.38-174.90 8.38L-174.90 8.38Q-180.64 8.38-180.64 13.48L-180.64 13.48Q-180.64 16.12-179.18 17.71Q-177.72 19.30-175.36 19.30ZM-147.33-15.46L-142.05-15.46L-142.05-25.38L-129.77-27.74L-130.95-15.46L-119.94-15.46L-120.94-8.00L-131.31-8.00L-131.77 11.02Q-131.77 15.30-130.95 16.71Q-130.13 18.12-127.95 18.12Q-125.76 18.12-122.12 17.12L-122.12 17.12L-121.58 23.58Q-127.58 28.59-132.13 28.59Q-136.68 28.59-139.59 25.27Q-142.51 21.94-142.51 16.57L-142.51 16.57L-141.96 6.38L-142.05-8.00L-148.33-8.00L-147.33-15.46ZM-104.20 28.59Q-109.56 28.59-112.98 25.17Q-116.39 21.76-116.39 15.98Q-116.39 10.20-111.11 5.97Q-105.83 1.74-98.28 1.74L-98.28 1.74L-92.09 1.74L-92.09 0.19Q-92.09-4.26-93.91-5.90Q-95.73-7.54-100.74-7.54L-100.74-7.54Q-102.83-7.54-105.70-6.68Q-108.56-5.81-112.11-3.99L-112.11-3.99L-114.75-11.18Q-110.84-13.91-105.24-16.09Q-99.65-18.28-96.01-18.28L-96.01-18.28Q-81.72-18.28-81.72-4.45L-81.72-4.45L-81.72 13.39Q-81.72 18.49-78.53 24.76L-78.53 24.76L-88.18 28.86Q-90.45 24.49-91.55 21.03L-91.55 21.03Q-96.55 28.59-104.20 28.59L-104.20 28.59ZM-100.37 19.30L-100.37 19.30Q-96.73 19.30-92.09 15.57L-92.09 15.57L-92.09 9.48Q-96.92 8.38-99.92 8.38L-99.92 8.38Q-105.65 8.38-105.65 13.48L-105.65 13.48Q-105.65 16.12-104.20 17.71Q-102.74 19.30-100.37 19.30ZM-72.34-15.46L-67.07-15.46L-67.07-25.38L-54.78-27.74L-55.97-15.46L-44.95-15.46L-45.96-8.00L-56.33-8.00L-56.78 11.02Q-56.78 15.30-55.97 16.71Q-55.15 18.12-52.96 18.12Q-50.78 18.12-47.14 17.12L-47.14 17.12L-46.59 23.58Q-52.60 28.59-57.15 28.59Q-61.70 28.59-64.61 25.27Q-67.52 21.94-67.52 16.57L-67.52 16.57L-66.98 6.38L-67.07-8.00L-73.35-8.00L-72.34-15.46ZM-41.04 9.57Q-41.04-2.08-34.76-10.18Q-28.48-18.28-20.07-18.28Q-11.65-18.28-6.96-12.82Q-2.28-7.36-2.28 1.65L-2.28 1.65Q-2.28 13.66-8.33 21.63Q-14.38 29.59-23.57 29.59L-23.57 29.59Q-31.12 29.59-36.08 23.90Q-41.04 18.21-41.04 9.57L-41.04 9.57ZM-12.47 6.38L-12.47 6.38Q-12.47-6.81-21.48-6.81L-21.48-6.81Q-30.85-6.81-30.85 5.56L-30.85 5.56Q-30.85 12.02-28.21 15.66Q-25.57 19.30-21.25 19.30Q-16.93 19.30-14.70 15.98Q-12.47 12.66-12.47 6.38ZM16.47 28.59L16.47 28.59Q11.56 28.59 8.51 25.36Q5.46 22.13 5.46 16.85L5.46 16.85L6.01 6.38L5.00-15.46L17.20-17.73L16.02 9.93Q16.02 13.84 17.43 15.66Q18.84 17.48 21.93 17.48Q25.02 17.48 30.48 14.39L30.48 14.39L30.48 8.93L29.48-15.00L41.77-17.28L40.68 5.47L40.77 12.93Q40.77 18.76 43.77 24.67L43.77 24.67L34.31 28.86Q31.30 22.94 30.67 19.40L30.67 19.40Q22.48 28.59 16.47 28.59ZM51.96-15.46L64.16-17.73L63.06 4.93L64.06 26.31L51.87 28.59L52.96 6.47L51.96-15.46ZM51.32-31.06Q51.32-34.11 53.69-36.52Q56.06-38.94 59.15-38.94Q62.24-38.94 63.88-37.25Q65.52-35.57 65.52-32.20Q65.52-28.83 63.20-26.42Q60.88-24.01 57.83-24.01Q54.78-24.01 53.05-26.01Q51.32-28.02 51.32-31.06ZM74.17-39.57L86.63-41.85L85.45 4.93L86.45 26.31L74.17 28.59L75.26 6.47L74.17-39.57ZM97.19-39.57L109.66-41.85L108.47 4.93L109.47 26.31L97.19 28.59L98.28 6.47L97.19-39.57ZM136.59 19.30L136.59 19.30Q139.23 19.30 142.14 17.94Q145.05 16.57 146.69 15.21L146.69 15.21L148.33 13.84L152.52 18.94Q151.61 20.49 149.69 22.49Q147.78 24.49 145.83 25.90Q143.87 27.31 140.64 28.45Q137.41 29.59 133.95 29.59L133.95 29.59Q126.58 29.59 121.94 23.99Q117.30 18.39 117.30 9.57L117.30 9.57Q117.30-1.53 123.76-9.91Q130.22-18.28 138.87-18.28L138.87-18.28Q145.51-18.28 149.19-14.55Q152.88-10.82 152.88-4.08L152.88-4.08Q152.88-0.08 151.51 5.02L151.51 5.02L149.69 6.93L126.94 9.02Q128.49 19.30 136.59 19.30ZM136.59-8.91L136.59-8.91Q132.59-8.91 129.86-5.67Q127.13-2.44 126.67 2.56L126.67 2.56L142.14 0.65Q142.41-1.44 142.41-2.81L142.41-2.81Q142.41-8.91 136.59-8.91ZM183.82-13.91L183.82-13.91Q183.82-19.01 177.63-19.01L177.63-19.01Q173.81-19.01 169.21-17.41Q164.62-15.82 161.89-14.18L161.89-14.18L159.25-12.64L161.71-25.65Q165.26-27.56 170.26-29.06Q175.27-30.56 179.09-30.56L179.09-30.56Q186.82-30.56 191.51-26.60Q196.20-22.65 196.20-16.09L196.20-16.09Q196.20-7.27 186.91 2.29L186.91 2.29L171.08 18.67L199.47 17.03L197.93 29.13L179.00 28.31L157.52 28.95L158.98 19.40L178.09-2.63Q183.82-9.09 183.82-13.91ZM205.48-16.82L207.39-27.83Q215.03-30.56 222.59-30.56Q230.14-30.56 234.96-26.74Q239.78-22.92 239.78-17.10L239.78-17.10Q239.78-12.55 237.42-9.13Q235.05-5.72 230.69-3.99L230.69-3.99Q237.06-1.63 239.88 1.88Q242.70 5.38 242.70 10.75L242.70 10.75Q242.70 18.94 236.37 24.26Q230.05 29.59 220.31 29.59L220.31 29.59Q215.67 29.59 211.26 28.36Q206.84 27.13 204.75 25.86L204.75 25.86L202.66 24.58L206.48 13.57Q207.30 14.30 208.66 15.39Q210.03 16.48 213.90 18.35Q217.76 20.21 221.68 20.21Q225.59 20.21 228.50 18.08Q231.41 15.94 231.41 12.02Q231.41 8.11 228.00 5.56Q224.59 3.02 218.58 3.02L218.58 3.02L210.76 3.02L212.39-5.81L217.40-5.81Q222.40-5.81 225.22-8.09Q228.05-10.36 228.05-13.91Q228.05-17.46 225.68-19.42Q223.31-21.37 219.99-21.37Q216.67-21.37 213.17-20.23Q209.66-19.10 205.48-16.82L205.48-16.82Z"/></g>
</svg>